{"title":"Miss Bala 2011 BRRip 720p x264 AAC - PRiSTiNE [P2PDL]","uid":8230275,"size":676176347,"categoryP":"video","categoryS":"hd___movies","magnet":"?xt=urn:btih:50a5a870eada14d64d78dccd8e555f5f861b50a1&amp;dn=Miss+Bala+2011+BRRip+720p+x264+AAC+-+PRiSTiNE+%5BP2PDL%5D&amp;tr=udp%3A%2F%2Ftracker.openbittorrent.com%3A80&amp;tr=udp%3A%2F%2Fopen.demonii.com%3A1337&amp;tr=udp%3A%2F%2Ftracker.coppersurfer.tk%3A6969&amp;tr=udp%3A%2F%2Fexodus.desync.com%3A6969","seeders":0,"leechers":1,"uploader":"Vitamin_X","files":-1,"time":1362711881,"description":"_________________________  Visit us at _________________________\n  &lt;a href=&quot;\nhttp://p2pdl.com&quot; rel=&quot;nofollow&quot; target=&quot;_NEW&quot;&gt;\nhttp://p2pdl.com&lt;/a&gt;  ____________________________ &lt;a href=&quot; http://p2pdl.com&quot; rel=&quot;nofollow&quot; target=&quot;_NEW&quot;&gt; http://p2pdl.com&lt;/a&gt;\n\nMiss Bala 2011 BRRip 720p x264 AAC - PRiSTiNE\n\nGenre: Crime | Drama | Thriller\nPlot: After entering a beauty contest in Tijuana, a young woman witnesses \ndrug-related murders and is forced to do the gang's bidding.\nDirector: Gerardo Naranjo\nStars: Stephanie Sigman, Irene Azuela, Jose Yenque\nRated: Rated R for language, some brutal violence and sexuality\n\nInfo: &lt;a href=&quot;\nhttp://www.imdb.com/title/tt1911600/&quot; rel=&quot;nofollow&quot; target=&quot;_NEW&quot;&gt;\nhttp://www.imdb.com/title/tt1911600/&lt;/a&gt;\n\nGeneral\nComplete name                  : Miss Bala 2011 BRRip 720p x264 AAC - PRiSTiNE.mp4\nFormat                         : MPEG-4\nFormat profile                 : Base Media\nCodec ID                       : isom\nFile size                      : 637 MiB\nDuration                       : 1h 52mn\nOverall bit rate mode          : Variable\nOverall bit rate               : 788 Kbps\n\nSource                         : 720p BluRay PHD (Thanks)\n\nVideo\nFormat                         : AVC\nFormat/Info                    : Advanced Video Codec\nFormat profile                 : High &lt;a class=&quot;__cf_email__&quot; href=&quot;/cdn-cgi/l/email-protection&quot; data-cfemail=&quot;09383949453d2738&quot;&gt;[email&amp;#160;protected]&lt;/a&gt;&lt;script cf-hash='f9e31' type=&quot;text/javascript&quot;&gt;\n/* &lt;![CDATA[ */!function(){try{var t=&quot;currentScript&quot;in document?document.currentScript:function(){for(var t=document.getElementsByTagName(&quot;script&quot;),e=t.length;e--;)if(t[e].getAttribute(&quot;cf-hash&quot;))return t[e]}();if(t&amp;&amp;t.previousSibling){var e,r,n,i,c=t.previousSibling,a=c.getAttribute(&quot;data-cfemail&quot;);if(a){for(e=&quot;&quot;,r=parseInt(a.substr(0,2),16),n=2;a.length-n;n+=2)i=parseInt(a.substr(n,2),16)^r,e+=String.fromCharCode(i);e=document.createTextNode(e),c.parentNode.replaceChild(e,c)}}}catch(u){}}();/* ]]&gt; */&lt;/script&gt;\nBit rate                       : 745 Kbps\nWidth                          : 1 280 pixels\nHeight                         : 544 pixels\nDisplay aspect ratio           : 2.35:1\nFrame rate mode                : Constant\nFrame rate                     : 23.976 fps\nColor space                    : YUV\nChroma subsampling             : 4:2:0\nBit depth                      : 10 bits\nScan type                      : Progressive\nBits/(Pixel*Frame)             : 0.045\nStream size                    : 602 MiB (95%)\nWriting library                : x264 core 129 r2245 bc13772\n\nAudio\nFormat                         : AAC\nBit rate mode                  : Variable\nBit rate                       : 40.0 Kbps\nChannel(s)                     : 2 channels\nChannel positions              : Front: L R\nSampling rate                  : 44.1 KHz / 22.05 KHz\nStream size                    : 32.3 MiB (5%)\nLanguage                       : Spanish\n\nSubtitle                       : Yes (English)\n\nScreens: &lt;a href=&quot;\nhttp://ultraimg.com/images/JKNfz.jpg&quot; rel=&quot;nofollow&quot; target=&quot;_NEW&quot;&gt;\nhttp://ultraimg.com/images/JKNfz.jpg&lt;/a&gt; &lt;a href=&quot;\nhttp://ultraimg.com/images/5XDp3.jpg&quot; rel=&quot;nofollow&quot; target=&quot;_NEW&quot;&gt;\nhttp://ultraimg.com/images/5XDp3.jpg&lt;/a&gt; &lt;a href=&quot;\nhttp://ultraimg.com/images/ZoBO8.jpg&quot; rel=&quot;nofollow&quot; target=&quot;_NEW&quot;&gt;\nhttp://ultraimg.com/images/ZoBO8.jpg&lt;/a&gt; &lt;a href=&quot;\nhttp://ultraimg.com/images/huQI3.jpg&quot; rel=&quot;nofollow&quot; target=&quot;_NEW&quot;&gt;\nhttp://ultraimg.com/images/huQI3.jpg&lt;/a&gt;\n\nThumbs: &lt;a href=&quot;\nhttp://ultraimg.com/images/6jkqL.jpg&quot; rel=&quot;nofollow&quot; target=&quot;_NEW&quot;&gt;\nhttp://ultraimg.com/images/6jkqL.jpg&lt;/a&gt;\n----------------------------------------------------------------------------------------------------\nEncoded using revolutionary 10bit encoding, which enables us to provide you more crispier \nand sharper images at small sizes, just make sure you follow our instructions without a fault.\nRecommend to you to use latest version of VLC player. Install K-Lite Codec Pack or shark007 codecs\nin case of any kind of problem in playback (For non-VLC Media Player users). Alternatively, install\nCore AVC codecs, the fastest decoder that there is coupled with Community Center Codec Pack and play\non Windows Media Player Classic. Check sample to be sure.\nEnjoy!","torrent":{"xt":"urn:btih:50a5a870eada14d64d78dccd8e555f5f861b50a1","amp;dn":"Miss+Bala+2011+BRRip+720p+x264+AAC+-+PRiSTiNE+%5BP2PDL%5D","amp;tr":["udp%3A%2F%2Ftracker.openbittorrent.com%3A80","udp%3A%2F%2Fopen.demonii.com%3A1337","udp%3A%2F%2Ftracker.coppersurfer.tk%3A6969","udp%3A%2F%2Fexodus.desync.com%3A6969"],"infoHash":"50a5a870eada14d64d78dccd8e555f5f861b50a1","infoHashBuffer":{"type":"Buffer","data":[80,165,168,112,234,218,20,214,77,120,220,205,142,85,95,95,134,27,80,161]},"announce":[],"urlList":[]}}